<?xml version="1.0" encoding="utf-8"?>
<!-- Generator: Adobe Illustrator 17.0.0, SVG Export Plug-In . SVG Version: 6.00 Build 0)  -->
<!DOCTYPE svg PUBLIC "-//W3C//DTD SVG 1.1//EN" "http://www.w3.org/Graphics/SVG/1.1/DTD/svg11.dtd">
<svg version="1.1" id="Layer_1" xmlns="http://www.w3.org/2000/svg" xmlns:xlink="http://www.w3.org/1999/xlink" x="0px" y="0px"
	 width="234.519px" height="50px" viewBox="0 0 234.519 50" enable-background="new 0 0 234.519 50" xml:space="preserve">
<g>
	<path fill="#2C2A2A" d="M14.165,2.817c6.557-4.774,16.445-3.388,21.139,3.515c4.694,6.904,9.767,19.194,5.306,23.529
		c-4.461,4.335-16.198,2.633-25.452-4.561C5.905,18.107,7.608,7.591,14.165,2.817L14.165,2.817z M118.248,28.168L118.248,28.168
		c4.774,6.557,15.291,8.26,22.485-0.994c7.194-9.253,8.896-20.99,4.56-25.451c-4.335-4.461-16.626,0.612-23.529,5.306
		C114.86,11.723,113.474,21.611,118.248,28.168L118.248,28.168z M169.587,22.894L169.587,22.894
		c-1.954,2.055-4.602,3.02-4.798,10.366c0.048,3.14,1.257,3.477,2.234,5.514c4.553,6.113,13.306,3.053,18.085,0.432
		c4.588-3.319,6.12-9.132,0.918-15.908C182.348,18.871,175.127,17.675,169.587,22.894L169.587,22.894z M203.366,9.529L203.366,9.529
		c-2.225,2.095-5.469,3.409-4.792,9.6c0.457,2.621,2.037,2.671,3.536,4.19c6.56,4.249,17.302,0.01,23.047-3.1
		c5.414-3.658,6.629-8.82-0.839-13.499C219.082,3.717,209.751,4.098,203.366,9.529L203.366,9.529z M64.23,25.762L64.23,25.762
		c-2.503,3.575-6.539,6.018-4.268,15.788c1.189,4.118,3.306,4.026,5.64,6.279c9.686,6.043,23.072-1.868,30.045-7.439
		c6.411-6.407,6.89-14.748-4.102-21.376C83.902,14.807,71.545,16.429,64.23,25.762z"/>
	<path fill="#2C2A2A" d="M10.701,23.057c0.498-0.126,0.974-0.327,1.397-0.632l0.006-0.004c0.558-0.4,0.828-0.812,0.845-1.489
		c-0.104-0.165-0.471-0.42-0.608-0.508l-0.007-0.005c-0.474-0.307-0.966-0.513-1.491-0.621
		C10.819,20.886,10.767,21.972,10.701,23.057L10.701,23.057z M222.568,23.495L222.568,23.495c-0.224,0.194-0.468,0.362-0.732,0.499
		c-0.867,0.446-2.162,0.637-3.295,0.72v-3.708c1.025,0.247,1.963,0.723,2.832,1.354C221.697,22.599,222.259,23.051,222.568,23.495
		L222.568,23.495z M107.096,30.502L107.096,30.502c0.066-1.607,0.182-3.212,0.298-4.815c0.052-0.716,0.104-1.432,0.151-2.149
		c-0.714,0.362-1.52,0.546-2.375,0.546c-2.031,0-3.616-1.064-4.564-2.762c-0.462,0.074-1.211,0.685-1.512,0.951
		c-0.536,0.474-1.039,1.012-1.5,1.56c-1.669,1.98-3.467,4.686-3.467,7.369c0,0.592,0.162,1.041,0.567,1.475
		c0.332,0.352,0.65,0.529,1.141,0.529c0.811,0,1.597-0.255,2.317-0.614c0.839-0.46,1.636-1.043,2.426-1.582l0.019-0.013l0.01-0.007
		c1.051-0.698,2.296-1.372,3.59-1.372C105.26,29.619,106.249,29.925,107.096,30.502L107.096,30.502z M19.575,29.284L19.575,29.284
		c-0.39,0.374-0.806,0.723-1.244,1.048c-2.432,1.801-5.216,2.707-8.187,2.885c-0.031,1.82-0.028,3.64-0.028,5.459
		c0,1.333-0.49,2.542-1.413,3.503l-0.012,0.013l-0.013,0.013c-0.971,0.985-2.233,1.484-3.612,1.484
		c-1.377,0-2.646-0.499-3.618-1.485l-0.01-0.01C0.504,41.234,0,40.02,0,38.677v-5.002c0-2.805,0.183-5.608,0.367-8.406
		c0.165-2.702,0.331-5.408,0.35-8.114c0.01-2.467,0.504-5.353,2.905-6.624c0.66-0.349,1.387-0.52,2.13-0.53
		c0.579-0.122,1.17-0.184,1.759-0.229c0.941-0.073,1.885-0.088,2.828-0.088c3.028,0,5.778,1.015,8.203,2.806l0.005,0.004
		c0.487,0.362,0.952,0.753,1.385,1.176c0.496-2.418,2.305-4.004,5.07-4.004c0.602,0,1.194,0.099,1.759,0.299
		c1.084-0.246,2.179-0.453,3.281-0.605c1.294-0.177,2.599-0.282,3.906-0.282c2.705,0,5.643,0.239,8.185,1.212
		c0.524,0.199,1.019,0.465,1.461,0.804c0.755-0.328,1.577-0.453,2.414-0.393c1,0.06,1.994,0.195,2.987,0.318
		c0.845,0.092,1.703,0.178,2.554,0.178c1.077,0,2.153-0.018,3.23-0.036c1.107-0.019,2.214-0.037,3.321-0.037
		c1.425,0,2.85,0.094,4.271,0.19l0.009,0.001c1.297,0.092,2.599,0.183,3.899,0.183c1.389,0,2.667,0.487,3.671,1.453l0.011,0.011
		c1.007,0.98,1.544,2.254,1.544,3.659c0,1.408-0.535,2.682-1.543,3.664c-1.003,0.978-2.286,1.476-3.683,1.476
		c-1.513,0-3.026-0.103-4.535-0.202l-0.015-0.001c-0.44-0.031-0.88-0.062-1.321-0.089c0.095,1.427,0.212,2.852,0.325,4.277
		c0.203,2.506,0.382,5.019,0.382,7.533c0,0.507,0.06,1.022,0.113,1.525l0.002,0.021c0.068,0.69,0.135,1.384,0.135,2.079
		c0,1.288-0.279,2.541-0.883,3.682c-0.919,1.734-2.492,2.818-4.484,2.818c-1.286,0-2.48-0.43-3.466-1.256
		c-1.169-0.97-1.815-2.307-1.815-3.829c0-0.408,0.059-0.812,0.13-1.213c0.016-0.097,0.045-0.235,0.048-0.332
		c0-0.766-0.055-1.533-0.109-2.297c-0.065-0.899-0.123-1.801-0.123-2.703c0-2.089-0.172-4.182-0.362-6.262
		c-0.124-1.359-0.254-2.717-0.357-4.078c-1.801-0.05-3.645-0.204-5.382-0.625c-0.767-0.187-1.498-0.504-2.127-0.973
		c-0.654,0.29-1.361,0.431-2.09,0.431c-0.495,0-0.987-0.074-1.464-0.205c-1.61-0.432-3.271-0.688-4.94-0.688
		c-0.842,0-1.684,0.075-2.517,0.189c-0.324,0.045-0.648,0.096-0.97,0.153c-0.012,0.65-0.027,1.3-0.045,1.95
		c1.318-0.128,2.635-0.267,3.953-0.395c0.95-0.095,1.9-0.186,2.852-0.262c0.584-0.046,1.168-0.095,1.755-0.095
		c1.348,0,2.598,0.458,3.606,1.356c1.106,0.984,1.657,2.325,1.657,3.796c0,2.863-1.845,4.753-4.641,5.102l-0.063,0.008l-0.064,0.005
		c-1.408,0.109-2.816,0.229-4.222,0.356c-1.782,0.198-3.568,0.359-5.355,0.508c-0.011,0.395-0.017,0.79-0.017,1.185
		c0,0.505-0.004,1.024,0.012,1.539c1.083-0.001,2.165-0.027,3.248-0.054c1.14-0.028,2.28-0.056,3.421-0.056
		c0.199,0,0.44-0.046,0.637-0.077l0.019-0.003l0.017-0.003c0.473-0.068,0.948-0.132,1.427-0.132c1.267,0,2.462,0.382,3.456,1.175
		c1.243,0.988,1.862,2.401,1.862,3.978c0,2.698-1.678,4.559-4.296,5.051c-1.028,0.195-2.089,0.252-3.133,0.3
		c-1.603,0.074-3.209,0.089-4.814,0.089c-2.938,0-7.118-0.225-9.412-2.259c-2.505-2.222-2.861-6.404-2.861-9.549
		C19.451,31.913,19.501,30.598,19.575,29.284L19.575,29.284z M209.33,41.653L209.33,41.653c0.132,0.167,0.276,0.327,0.43,0.479
		c0.995,0.982,2.277,1.48,3.671,1.48c1.393,0,2.675-0.499,3.669-1.479c0.992-0.98,1.512-2.244,1.512-3.636
		c0-0.578-0.028-1.155-0.048-1.733c2.624,1.267,4.998,2.966,7.133,4.968l0.004,0.004c0.995,0.928,2.23,1.471,3.598,1.471
		c1.385,0,2.649-0.516,3.646-1.475c1.015-0.978,1.572-2.245,1.572-3.659c0-1.259-0.464-2.412-1.293-3.354
		c-1.12-1.285-2.43-2.416-3.814-3.423c0.533-0.414,1.032-0.871,1.483-1.376c1.485-1.663,2.273-3.673,2.273-5.905
		c0-5.739-4.311-9.478-9.056-11.87c-1.573-0.806-3.323-1.239-5.071-1.455c-0.44-0.067-0.884-0.078-1.326-0.112
		c-1.089-0.084-2.177-0.164-3.266-0.245c-1.945-0.153-3.687,0.587-4.865,2.155l-0.012,0.016c-0.801,1.084-1.218,2.342-1.219,3.69
		l-0.037,14.327v0.006c0,0.102,0,0.203-0.001,0.305c-0.719-3.082-1.415-6.169-2.069-9.266c-0.378-1.88-0.759-3.76-1.111-5.646
		l-0.021-0.114l-0.031-0.112c-0.699-2.524-2.481-4.341-5.212-4.341c-1.713,0-2.981,1.457-3.974,2.678
		c-1.357,1.67-2.56,3.466-3.743,5.261c-1.806,2.74-3.547,5.523-5.208,8.353c-1.367,0.634-2.424,1.693-2.559,3.288l-0.003,0.036
		l-0.003,0.037c-0.017,0.302-0.004,0.603,0.039,0.901c-0.832,1.667-2.418,4.883-2.418,6.422c0,1.479,0.606,2.796,1.733,3.753
		c0.996,0.846,2.193,1.308,3.503,1.308c1.91,0,3.481-0.954,4.467-2.572l0.05-0.082l0.044-0.085c0.795-1.54,1.591-3.082,2.312-4.659
		c0.866-0.099,1.736-0.163,2.605-0.225c0.712-0.046,1.424-0.091,2.135-0.15c0.322,1.018,0.693,2.02,1.131,2.994
		c0.957,2.184,2.503,4.8,5.186,4.905c1.355,0.051,2.647-0.44,3.655-1.341l0.009-0.008C209.009,42.008,209.176,41.836,209.33,41.653
		L209.33,41.653z M129.976,22.169L129.976,22.169c0-0.107-0.001-0.215-0.001-0.322c0-0.686-0.051-1.375-0.116-2.061
		c-0.651,0.294-1.363,0.444-2.113,0.444c-0.493,0-0.981-0.073-1.456-0.204c-1.591-0.427-3.233-0.681-4.882-0.681
		c-0.831,0-1.664,0.074-2.488,0.187c-0.313,0.043-0.625,0.092-0.937,0.147c-0.011,0.625-0.026,1.251-0.043,1.876
		c1.294-0.126,2.587-0.262,3.881-0.389c0.94-0.093,1.88-0.184,2.822-0.258c0.579-0.046,1.158-0.094,1.74-0.094
		c1.34,0,2.584,0.456,3.587,1.349C129.973,22.166,129.974,22.167,129.976,22.169L129.976,22.169z M129.91,35.732L129.91,35.732
		c0.017-0.286,0.028-0.573,0.028-0.858c0-1.074,0.035-2.148,0.069-3.222v-0.01c0.023-0.646,0.045-1.293,0.059-1.94
		c-0.784,0.707-1.831,1.162-3.063,1.316l-0.063,0.008l-0.064,0.005c-1.394,0.107-2.786,0.226-4.177,0.352
		c-1.756,0.195-3.516,0.354-5.277,0.502c-0.01,0.382-0.017,0.764-0.017,1.147c0,0.492-0.004,0.995,0.012,1.495
		c1.063-0.001,2.125-0.027,3.187-0.053c1.129-0.028,2.258-0.055,3.386-0.055c0.196,0,0.434-0.045,0.629-0.076l0.021-0.004
		l0.012-0.002c0.469-0.068,0.942-0.13,1.416-0.13c1.26,0,2.45,0.38,3.438,1.169C129.649,35.489,129.784,35.608,129.91,35.732
		L129.91,35.732z M131.448,11.509L131.448,11.509c1.067-0.937,2.37-1.449,3.8-1.449c2.242,0,3.913,1.711,5.115,3.418l0.004,0.005
		c3.368,4.812,6.992,9.503,11,13.81c-0.007-1.162-0.018-2.324-0.035-3.486c-0.022-1.449-0.045-2.899-0.126-4.345
		c-0.042-0.575-0.133-1.149-0.211-1.719c-0.106-0.77-0.201-1.548-0.201-2.326c0-3.197,2.146-5.146,5.291-5.146
		c1.991,0,3.274,1.12,4.092,2.626c0.116-0.168,0.243-0.329,0.379-0.486c1.07-1.234,2.548-1.819,4.171-1.704
		c0.99,0.059,1.974,0.194,2.957,0.315c0.836,0.091,1.684,0.176,2.525,0.176c1.065,0,2.131-0.018,3.196-0.036
		c1.096-0.018,2.191-0.037,3.287-0.037c1.412,0,2.822,0.093,4.229,0.188l0.007,0c1.284,0.091,2.572,0.181,3.859,0.181
		c1.382,0,2.653,0.483,3.652,1.445l0.013,0.013c1,0.975,1.535,2.243,1.535,3.64c0,1.4-0.533,2.669-1.536,3.647
		c-0.998,0.973-2.274,1.469-3.664,1.469c-1.498,0-2.996-0.103-4.493-0.2l-0.012-0.001c-0.425-0.03-0.85-0.06-1.276-0.086
		c0.094,1.402,0.209,2.802,0.32,4.202c0.202,2.48,0.379,4.967,0.379,7.457c0,0.501,0.059,1.01,0.112,1.508l0.002,0.018
		c0.068,0.685,0.134,1.372,0.134,2.061c0,1.279-0.277,2.523-0.877,3.656c-0.914,1.726-2.48,2.805-4.462,2.805
		c-1.279,0-2.468-0.428-3.448-1.25c-1.163-0.965-1.806-2.296-1.806-3.811c0-0.406,0.058-0.807,0.129-1.206
		c0.016-0.095,0.044-0.23,0.046-0.324c-0.001-0.757-0.054-1.516-0.108-2.271c-0.063-0.891-0.122-1.783-0.122-2.676
		c0-2.067-0.17-4.138-0.359-6.195c-0.122-1.337-0.25-2.673-0.352-4.011c-1.777-0.05-3.595-0.204-5.309-0.619
		c-0.586-0.143-1.139-0.36-1.637-0.652c0.018,0.595,0.023,1.191,0.023,1.788c0,0.947-0.023,1.893-0.036,2.839
		c-0.045,3.727-0.109,7.454-0.109,11.182c0,1.073-0.163,2.161-0.329,3.22c-0.435,2.806-2.399,4.574-5.259,4.574
		c-1.772,0-3.324-0.941-4.607-2.09l-0.005-0.004c-3.967-3.577-7.597-7.568-11.013-11.688c0.013,0.745,0.031,1.491,0.048,2.237
		c0.033,1.428,0.061,2.856,0.061,4.285c0,2.707-0.44,6.128-3.176,7.465c-0.648,0.317-1.353,0.468-2.073,0.468
		c-1.525,0-2.934-0.513-4.011-1.614c-0.205-0.21-0.389-0.433-0.551-0.667c-0.73,1.168-1.96,1.958-3.53,2.253
		c-1.018,0.193-2.07,0.25-3.104,0.298c-1.587,0.074-3.176,0.088-4.765,0.088c-2.916,0-7.056-0.224-9.334-2.243
		c-1.153-1.023-1.836-2.455-2.242-3.954c-0.038,0.034-0.077,0.068-0.116,0.101l-0.008,0.007c-3.333,2.812-7.246,4.756-11.683,4.756
		c-3.408,0-6.368-1.277-8.708-3.756l-0.006-0.007c-2.206-2.359-3.358-5.215-3.358-8.448c0-5.254,2.53-9.942,5.829-13.875
		l0.005-0.006c2.821-3.348,6.526-6.213,11.103-6.213c0.546,0,1.093,0.017,1.636,0.064c0.069,0.006,0.138,0.012,0.207,0.019
		c0.786-0.425,1.655-0.634,2.556-0.634c1.257,0,2.365,0.403,3.221,1.167c0.921-1.343,2.443-2.039,4.244-2.039
		c0.596,0,1.183,0.097,1.742,0.294c1.072-0.243,2.153-0.448,3.242-0.597c1.282-0.176,2.575-0.279,3.869-0.279
		c2.681,0,5.592,0.236,8.111,1.201C130.25,10.579,130.908,10.979,131.448,11.509z"/>
	<path fill="#FFFFFF" d="M223.714,23.713c-0.077,0.088-0.162,0.175-0.223,0.236c-0.358,0.362-0.762,0.668-1.214,0.901
		c-1.237,0.637-3.141,0.83-4.7,0.878v-5.849c0.049,0.004,0.098,0.009,0.148,0.013l0.019,0.002c1.552,0.16,2.941,0.775,4.197,1.687
		C222.573,22.046,223.523,22.849,223.714,23.713L223.714,23.713z M9.663,24.188L9.663,24.188c1.067-0.072,2.117-0.344,2.998-0.98
		l0.004-0.003c0.832-0.596,1.247-1.309,1.247-2.337c0-0.522-0.67-1.008-1.051-1.253l-0.005-0.004
		c-0.898-0.582-1.864-0.866-2.933-0.866c-0.01,0-0.021,0-0.032,0c-0.003,0.29-0.006,0.579-0.009,0.868l0,0.013
		C9.853,21.139,9.766,22.668,9.663,24.188L9.663,24.188z M20.74,26.263L20.74,26.263c-0.714,1.246-1.71,2.35-2.983,3.296
		c-2.522,1.868-5.44,2.698-8.558,2.728c-0.05,2.128-0.047,4.269-0.047,6.391c0,1.085-0.394,2.054-1.145,2.836L8,41.522l-0.008,0.008
		c-0.789,0.8-1.804,1.197-2.925,1.197c-1.12,0-2.142-0.397-2.931-1.197l-0.008-0.008c-0.76-0.781-1.165-1.753-1.165-2.844v-5.002
		c0-2.764,0.184-5.586,0.365-8.345c0.166-2.706,0.333-5.459,0.351-8.171c0.009-2.064,0.357-4.7,2.393-5.777
		c0.555-0.294,1.165-0.424,1.785-0.419c0.563-0.127,1.161-0.188,1.727-0.232c0.913-0.071,1.838-0.085,2.754-0.085
		c2.819,0,5.368,0.947,7.63,2.616l0.004,0.003c1.18,0.877,2.158,1.893,2.865,3.052c-0.047-0.413-0.08-0.829-0.08-1.231
		c0-2.668,1.507-4.459,4.244-4.459c0.591,0,1.157,0.115,1.686,0.341c1.151-0.269,2.314-0.495,3.484-0.656
		c1.25-0.171,2.512-0.273,3.775-0.273c2.566,0,5.427,0.224,7.842,1.149c0.663,0.252,1.225,0.612,1.665,1.064
		c0.726-0.46,1.575-0.658,2.491-0.593c0.968,0.058,1.977,0.195,2.939,0.314c0.873,0.095,1.786,0.184,2.665,0.184
		c1.082,0,2.165-0.018,3.246-0.037c1.101-0.019,2.204-0.037,3.304-0.037c1.393,0,2.817,0.094,4.207,0.187l0.006,0
		c1.309,0.093,2.654,0.185,3.967,0.185c1.14,0,2.179,0.391,3.002,1.183l0.007,0.007c0.821,0.799,1.253,1.823,1.253,2.969
		c0,1.148-0.43,2.173-1.252,2.975c-0.823,0.802-1.865,1.202-3.01,1.202c-1.48,0-2.996-0.103-4.472-0.2l-0.009-0.001
		c-0.796-0.056-1.607-0.113-2.417-0.147c0.103,1.794,0.252,3.595,0.393,5.373c0.2,2.464,0.379,4.983,0.379,7.456
		c0,0.531,0.062,1.1,0.119,1.628l0.001,0.013c0.064,0.65,0.131,1.33,0.131,1.983c0,1.131-0.24,2.228-0.771,3.231
		c-0.753,1.421-2.001,2.306-3.633,2.306c-1.061,0-2.036-0.351-2.849-1.033c-0.95-0.787-1.468-1.853-1.468-3.089
		c0-0.347,0.055-0.709,0.116-1.05c0.025-0.149,0.06-0.341,0.062-0.487c0-0.785-0.056-1.591-0.112-2.374
		c-0.063-0.871-0.12-1.761-0.12-2.635c0-2.101-0.175-4.258-0.366-6.35c-0.149-1.63-0.31-3.289-0.418-4.936
		c-2-0.022-4.141-0.152-6.053-0.615c-0.905-0.221-1.663-0.626-2.224-1.197c-0.651,0.414-1.402,0.628-2.22,0.628
		c-0.41,0-0.816-0.063-1.21-0.172c-1.694-0.455-3.438-0.722-5.193-0.722c-0.884,0-1.773,0.078-2.648,0.198
		c-0.6,0.082-1.198,0.187-1.791,0.31c-0.015,1.269-0.049,2.54-0.088,3.809c1.683-0.153,3.371-0.334,5.043-0.498
		c0.944-0.094,1.888-0.185,2.833-0.26c0.551-0.044,1.126-0.092,1.678-0.092c1.112,0,2.134,0.372,2.966,1.112
		c0.898,0.8,1.334,1.879,1.334,3.077c0,2.373-1.482,3.856-3.797,4.145l-0.041,0.006l-0.041,0.003
		c-1.415,0.109-2.831,0.23-4.245,0.358c-2.057,0.229-4.126,0.409-6.192,0.578c-0.028,0.692-0.047,1.385-0.047,2.074
		c0,0.504-0.009,1.673,0.07,2.497c0.317,0.009,0.644,0.005,0.865,0.005c1.103,0,2.21-0.027,3.313-0.054
		c1.131-0.028,2.266-0.056,3.398-0.056c0.244,0,0.546-0.051,0.787-0.089l0.012-0.002l0.012-0.002
		c0.419-0.061,0.866-0.122,1.289-0.122c1.049,0,2.034,0.309,2.856,0.965c1.011,0.803,1.499,1.939,1.499,3.224
		c0,2.234-1.348,3.698-3.512,4.104c-0.962,0.182-2.021,0.239-2.998,0.285c-1.586,0.073-3.181,0.088-4.769,0.088
		c-2.623,0-6.701-0.179-8.773-2.016c-2.253-1.998-2.537-6.027-2.537-8.828C20.414,30.925,20.574,28.567,20.74,26.263L20.74,26.263z
		 M209.358,39.62L209.358,39.62c0.187,0.685,0.549,1.303,1.079,1.827c0.814,0.803,1.853,1.203,2.994,1.203
		c1.141,0,2.18-0.4,2.993-1.202c0.808-0.799,1.225-1.815,1.225-2.95c0-0.587-0.03-1.188-0.05-1.775
		c-0.017-0.489-0.034-0.978-0.051-1.467c3.273,1.345,6.197,3.326,8.809,5.774l0.003,0.004c0.817,0.761,1.817,1.211,2.94,1.211
		c1.136,0,2.16-0.419,2.978-1.206c0.827-0.797,1.277-1.814,1.277-2.964c0-1.024-0.378-1.952-1.054-2.719
		c-1.346-1.545-3.021-2.889-4.777-4.059c0.907-0.562,1.747-1.227,2.452-2.017c1.328-1.487,2.028-3.269,2.028-5.264
		c0-5.335-4.118-8.788-8.529-11.011c-1.475-0.755-3.129-1.158-4.767-1.359c-0.394-0.061-0.875-0.076-1.268-0.106
		c-1.089-0.084-2.176-0.164-3.265-0.244c-1.619-0.128-3.041,0.468-4.021,1.772l-0.009,0.011c-0.679,0.919-1.03,1.976-1.03,3.118
		l-0.037,14.328v0.005c0,1.322-0.017,2.645-0.03,3.966c-0.01,0.749-0.021,1.499-0.027,2.249c-0.138-0.442-0.305-0.872-0.466-1.259
		l-0.004-0.01c-0.252-0.594-0.659-1.462-0.824-2.082c-0.917-3.867-1.804-7.742-2.626-11.63c-0.379-1.885-0.762-3.773-1.114-5.664
		l-0.014-0.073l-0.019-0.072c-0.584-2.108-1.998-3.634-4.284-3.634c-1.329,0-2.458,1.377-3.226,2.322
		c-1.321,1.625-2.534,3.436-3.686,5.184c-1.854,2.813-3.641,5.672-5.34,8.581c-1.147,0.465-2.158,1.262-2.272,2.612l-0.002,0.023
		l-0.001,0.024c-0.02,0.337,0.01,0.668,0.081,0.991c-0.852,1.708-2.46,4.983-2.46,6.277c0,1.196,0.482,2.244,1.394,3.019
		c0.822,0.698,1.799,1.078,2.88,1.078c1.57,0,2.832-0.778,3.644-2.11l0.033-0.053l0.028-0.055c0.859-1.664,1.744-3.38,2.512-5.105
		c1.058-0.142,2.149-0.223,3.196-0.297c0.952-0.061,1.928-0.124,2.894-0.218c0.361,1.238,0.79,2.46,1.317,3.632
		c0.783,1.789,2.11,4.245,4.342,4.333c1.114,0.041,2.146-0.355,2.975-1.096l0.007-0.006
		C208.756,40.938,209.151,40.318,209.358,39.62L209.358,39.62z M108.004,32.949L108.004,32.949c0.004-2.381,0.178-4.82,0.35-7.192
		c0.107-1.473,0.216-2.975,0.282-4.471c-0.032,0.049-0.066,0.098-0.1,0.146c-0.795,1.126-1.995,1.689-3.366,1.689
		c-1.843,0-3.195-1.055-3.942-2.702l-0.007-0.014c-0.007-0.015-0.014-0.032-0.022-0.049c-0.18-0.006-0.365-0.004-0.507-0.004
		c-1.287,0-3.094,1.979-3.836,2.861c-1.828,2.169-3.694,5.044-3.694,7.989c0,0.838,0.255,1.521,0.827,2.134
		c0.517,0.549,1.085,0.834,1.844,0.834c0.971,0,1.902-0.291,2.764-0.723c0.836-0.457,1.736-1.104,2.523-1.641l0.009-0.006
		l0.009-0.006c0.87-0.578,1.984-1.211,3.056-1.211c1.189,0,2.247,0.46,3.068,1.321C107.567,32.223,107.815,32.573,108.004,32.949
		L108.004,32.949z M108.171,36.18L108.171,36.18c-0.257,0.663-0.695,1.246-1.27,1.736l-0.006,0.005
		c-3.156,2.663-6.858,4.529-11.061,4.529c-3.144,0-5.848-1.166-8.006-3.452l-0.005-0.005c-2.04-2.182-3.097-4.801-3.097-7.789
		c0-5.017,2.456-9.503,5.604-13.257l0.002-0.003c2.627-3.118,6.096-5.871,10.367-5.871c0.518,0,1.039,0.016,1.554,0.061
		c0.167,0.014,0.334,0.031,0.501,0.051c0.694-0.438,1.489-0.663,2.344-0.663c1.62,0,2.778,0.788,3.436,2.036
		c0.482-1.787,1.871-2.908,4.029-2.908c0.585,0,1.146,0.113,1.67,0.336c1.138-0.265,2.288-0.489,3.445-0.648
		c1.239-0.17,2.488-0.27,3.738-0.27c2.542,0,5.376,0.222,7.769,1.138c0.975,0.371,1.73,0.976,2.199,1.77
		c0.18-0.235,0.386-0.456,0.614-0.662c0.907-0.832,2.016-1.288,3.251-1.288c1.882,0,3.327,1.589,4.326,3.008l0.003,0.004
		c3.825,5.466,8.053,10.868,12.761,15.671c-0.003-1.971-0.014-3.943-0.044-5.913c-0.022-1.46-0.045-2.934-0.127-4.392
		c-0.043-0.589-0.138-1.205-0.218-1.789c-0.099-0.716-0.192-1.471-0.192-2.194c0-2.662,1.714-4.182,4.328-4.182
		c2.441,0,3.593,2.165,4.138,4.65c-0.001-0.023-0.001-0.046-0.001-0.068c0-1.044,0.376-1.99,1.062-2.774
		c0.873-1.007,2.056-1.47,3.38-1.375c0.957,0.057,1.957,0.194,2.909,0.311c0.864,0.094,1.767,0.182,2.636,0.182
		c1.07,0,2.142-0.018,3.212-0.036c1.09-0.018,2.181-0.037,3.271-0.037c1.379,0,2.788,0.093,4.165,0.186l0.005,0
		c1.295,0.091,2.627,0.183,3.926,0.183c1.133,0,2.165,0.388,2.984,1.175l0.009,0.008c0.814,0.794,1.245,1.812,1.245,2.95
		c0,1.141-0.428,2.16-1.245,2.956c-0.818,0.798-1.853,1.196-2.992,1.196c-1.464,0-2.966-0.103-4.427-0.198l-0.009-0.001
		c-0.781-0.055-1.577-0.11-2.372-0.144c0.102,1.768,0.249,3.545,0.388,5.299c0.199,2.439,0.376,4.932,0.376,7.38
		c0,0.525,0.061,1.087,0.117,1.609l0.001,0.012c0.064,0.644,0.13,1.318,0.13,1.965c0,1.123-0.238,2.211-0.765,3.205
		c-0.748,1.412-1.99,2.292-3.611,2.292c-1.054,0-2.023-0.349-2.832-1.027c-0.943-0.782-1.46-1.842-1.46-3.07
		c0-0.344,0.056-0.704,0.116-1.043c0.024-0.146,0.058-0.335,0.061-0.478c0-0.777-0.056-1.574-0.111-2.349
		c-0.062-0.862-0.119-1.743-0.119-2.608c0-2.08-0.173-4.213-0.363-6.283c-0.147-1.608-0.305-3.244-0.412-4.869
		c-1.976-0.023-4.09-0.151-5.979-0.609c-1.491-0.365-2.581-1.234-3.045-2.518c0.232,1.74,0.24,3.468,0.24,4.59
		c0,0.941-0.024,1.887-0.037,2.827c-0.045,3.728-0.109,7.466-0.109,11.194c0,0.996-0.164,2.089-0.317,3.072
		c-0.362,2.337-1.923,3.758-4.307,3.758c-1.517,0-2.87-0.864-3.963-1.842l-0.004-0.004c-4.534-4.088-8.744-8.86-12.636-13.693
		c-0.003,0.264-0.004,0.527-0.004,0.79c0,1.395,0.035,2.795,0.066,4.19c0.032,1.419,0.061,2.843,0.061,4.263
		c0,2.277-0.305,5.46-2.635,6.599c-0.516,0.252-1.076,0.37-1.65,0.37c-1.266,0-2.428-0.41-3.321-1.323
		c-0.781-0.801-1.183-1.813-1.183-2.931c0-0.755,0.059-1.529,0.12-2.282c0.05-0.66,0.11-1.353,0.11-2.015
		c0-1.061,0.035-2.13,0.068-3.191v-0.007c0.036-1.026,0.072-2.058,0.072-3.084c0-1.11-0.028-2.224-0.054-3.333
		c-0.027-1.136-0.049-2.274-0.049-3.411c0-0.984-0.106-2.026-0.204-3.004c-0.025-0.254-0.051-0.511-0.075-0.769
		c-0.784,0.783-1.784,1.194-2.914,1.194c-0.407,0-0.81-0.062-1.202-0.17c-1.675-0.45-3.399-0.715-5.136-0.715
		c-0.874,0-1.752,0.078-2.618,0.196c-0.589,0.081-1.175,0.183-1.758,0.303c-0.015,1.245-0.048,2.491-0.086,3.736
		c1.659-0.151,3.323-0.33,4.971-0.491c0.934-0.092,1.868-0.182,2.803-0.257c0.546-0.043,1.115-0.091,1.663-0.091
		c1.105,0,2.12,0.37,2.947,1.106c0.893,0.795,1.326,1.868,1.326,3.059c0,2.358-1.473,3.833-3.773,4.12l-0.041,0.005l-0.041,0.003
		c-1.401,0.108-2.801,0.228-4.201,0.354c-2.03,0.225-4.074,0.403-6.113,0.57c-0.027,0.679-0.046,1.36-0.046,2.036
		c0,0.497-0.009,1.64,0.068,2.454c0.309,0.009,0.625,0.005,0.84,0.005c1.091,0,2.187-0.027,3.278-0.054
		c1.119-0.027,2.243-0.055,3.363-0.055c0.241,0,0.54-0.05,0.778-0.088l0.011-0.002l0.011-0.001c0.415-0.06,0.858-0.121,1.278-0.121
		c1.043,0,2.021,0.307,2.838,0.959c1.005,0.798,1.49,1.928,1.49,3.205c0,2.219-1.341,3.675-3.491,4.079
		c-0.953,0.181-2.002,0.237-2.969,0.282c-1.571,0.072-3.149,0.087-4.721,0.087c-2.602,0-6.639-0.179-8.694-2
		C109.052,40.478,108.426,38.305,108.171,36.18z"/>
	<path fill="#E52327" d="M105.17,21.386c-1.066,0-1.854-0.564-2.363-1.684c-0.236-0.533-0.473-0.854-0.709-0.963
		c-0.176-0.079-0.649-0.121-1.406-0.121c-1.491,0-3.211,1.157-5.162,3.478c-2.733,3.242-4.103,6.277-4.103,9.107
		c0,1.291,0.43,2.394,1.297,3.321c0.867,0.921,1.896,1.382,3.108,1.382c1.169,0,2.357-0.31,3.568-0.921
		c0.424-0.23,1.321-0.806,2.697-1.745c0.921-0.612,1.624-0.921,2.096-0.921c0.709,0,1.315,0.261,1.812,0.782
		c0.461,0.485,0.691,1.041,0.691,1.666c0,0.703-0.309,1.309-0.921,1.83c-3.254,2.745-6.569,4.12-9.943,4.12
		c-2.667,0-4.914-0.969-6.744-2.908c-1.751-1.872-2.63-4.071-2.63-6.605c0-3.963,1.733-8.01,5.199-12.142
		c2.951-3.502,5.962-5.254,9.041-5.254c0.515,0,0.988,0.018,1.406,0.055c0.424,0.036,0.794,0.085,1.115,0.157
		c0.515-0.508,1.145-0.763,1.878-0.763c1.206,0,1.951,0.691,2.236,2.079c0.2,0.994,0.303,2.151,0.303,3.478
		c0,0.594-0.17,1.133-0.515,1.618C106.673,21.065,106.018,21.386,105.17,21.386L105.17,21.386z M127.747,17.533L127.747,17.533
		c-0.236,0-0.484-0.036-0.745-0.109c-1.915-0.515-3.781-0.776-5.593-0.776c-0.884,0-1.836,0.073-2.854,0.212
		c-1.018,0.139-2.103,0.351-3.248,0.636c0,1.576-0.055,3.908-0.157,7.01c0.66-0.048,2.975-0.267,6.938-0.654
		c2.26-0.224,3.696-0.34,4.296-0.34c0.697,0,1.296,0.225,1.793,0.667c0.497,0.442,0.746,1.03,0.746,1.763
		c0,1.412-0.752,2.211-2.254,2.399c-0.946,0.073-2.364,0.188-4.242,0.358c-1.685,0.187-4.211,0.418-7.598,0.69
		c-0.079,1.503-0.121,2.714-0.121,3.642c0,2.32,0.133,3.641,0.406,3.957c0.127,0.157,0.879,0.236,2.236,0.236
		c0.733,0,1.842-0.018,3.321-0.054c1.479-0.037,2.588-0.054,3.321-0.054c0.236,0,0.588-0.036,1.049-0.109
		c0.46-0.066,0.805-0.103,1.03-0.103c0.685,0,1.273,0.194,1.757,0.582c0.557,0.442,0.836,1.053,0.836,1.848
		c0,1.326-0.691,2.115-2.078,2.375c-1.182,0.225-3.635,0.34-7.368,0.34c-3.854,0-6.368-0.521-7.543-1.564
		c-1.291-1.145-1.934-3.636-1.934-7.453c0-1.588,0.115-3.969,0.346-7.15c0.23-3.175,0.346-5.55,0.346-7.126
		c0-0.418-0.061-1.03-0.176-1.836c-0.115-0.812-0.176-1.424-0.176-1.842c0-1.799,0.83-2.696,2.484-2.696
		c0.522,0,1,0.145,1.436,0.442c1.369-0.339,2.678-0.6,3.914-0.769c1.236-0.17,2.399-0.254,3.502-0.254
		c2.981,0,5.363,0.339,7.15,1.023c1.085,0.412,1.63,1.17,1.63,2.254c0,0.618-0.212,1.164-0.636,1.636
		C129.08,17.26,128.48,17.533,127.747,17.533L127.747,17.533z M158.831,35.922L158.831,35.922c0,0.594-0.097,1.527-0.297,2.806
		c-0.236,1.527-1.102,2.29-2.593,2.29c-0.83,0-1.763-0.467-2.806-1.4c-4.556-4.108-9.7-9.864-15.426-17.274
		c-0.073,3.078-0.11,4.962-0.11,5.659c0,0.939,0.024,2.345,0.067,4.229c0.042,1.878,0.061,3.29,0.061,4.224
		c0,3.49-0.849,5.235-2.551,5.235c-0.867,0-1.558-0.266-2.079-0.8c-0.461-0.472-0.69-1.048-0.69-1.721
		c0-0.473,0.036-1.188,0.115-2.145c0.072-0.964,0.114-1.678,0.114-2.151c0-0.697,0.025-1.745,0.067-3.139
		c0.048-1.399,0.073-2.448,0.073-3.144c0-0.746-0.018-1.867-0.055-3.375c-0.037-1.503-0.049-2.624-0.049-3.369
		c0-0.71-0.072-1.77-0.212-3.175c-0.139-1.412-0.212-2.472-0.212-3.181c0-0.709,0.303-1.345,0.915-1.896
		c0.606-0.557,1.302-0.836,2.084-0.836c0.873,0,1.842,0.758,2.909,2.272c5.368,7.671,10.67,13.924,15.9,18.766
		c0.012-0.382,0.018-1.279,0.018-2.702c0-5.835-0.061-9.767-0.176-11.803c-0.024-0.346-0.103-0.982-0.23-1.915
		c-0.115-0.83-0.176-1.485-0.176-1.957c0-1.63,0.866-2.448,2.593-2.448c1.927,0,2.89,2.975,2.89,8.931
		c0,0.127-0.012,1.061-0.036,2.805C158.867,30.718,158.831,34.456,158.831,35.922L158.831,35.922z M184.789,19.011L184.789,19.011
		c0.708,0,1.302-0.237,1.781-0.703c0.478-0.467,0.721-1.036,0.721-1.715c0-0.672-0.243-1.242-0.721-1.708
		c-0.479-0.461-1.073-0.691-1.781-0.691c-0.903,0-2.249-0.061-4.048-0.188c-1.799-0.122-3.151-0.182-4.047-0.182
		c-0.721,0-1.806,0.012-3.242,0.036c-1.436,0.024-2.515,0.036-3.242,0.036c-0.721,0-1.667-0.067-2.836-0.194
		c-1.472-0.181-2.411-0.279-2.824-0.303c-0.806-0.06-1.454,0.201-1.957,0.782c-0.424,0.485-0.636,1.03-0.636,1.636
		c0,1.23,0.654,2.005,1.969,2.326c1.551,0.376,3.648,0.563,6.289,0.563h0.921c0.048,1.182,0.212,3.333,0.497,6.441
		c0.248,2.708,0.369,4.859,0.369,6.441c0,0.557,0.036,1.387,0.115,2.483c0.079,1.104,0.115,1.927,0.115,2.473
		c0,0.176-0.03,0.43-0.084,0.769c-0.06,0.339-0.091,0.588-0.091,0.752c0,0.703,0.279,1.278,0.836,1.739
		c0.497,0.418,1.073,0.624,1.721,0.624c0.903,0,1.594-0.455,2.078-1.37c0.376-0.709,0.564-1.508,0.564-2.393
		c0-0.4-0.042-1-0.121-1.794c-0.085-0.793-0.127-1.387-0.127-1.793c0-1.776-0.121-4.187-0.37-7.241
		c-0.273-3.454-0.43-5.854-0.478-7.205c0.994-0.012,2.43,0.049,4.314,0.182C182.425,18.944,183.867,19.011,184.789,19.011
		L184.789,19.011z M198.646,22.61L198.646,22.61c-0.927,1.588-2.2,3.745-3.817,6.477c0.533-0.122,1.357-0.212,2.484-0.285
		c1.327-0.079,2.163-0.145,2.503-0.193C199.531,27.07,199.143,25.07,198.646,22.61L198.646,22.61z M205.269,40.825L205.269,40.825
		c-0.933-0.037-1.878-1.14-2.823-3.303c-0.63-1.4-1.164-3.006-1.618-4.829c-0.872,0.127-2.302,0.26-4.296,0.388
		c-1.866,0.133-3.296,0.285-4.29,0.46c-0.545,1.303-1.49,3.26-2.842,5.878c-0.521,0.854-1.242,1.278-2.163,1.278
		c-0.654,0-1.236-0.224-1.757-0.666c-0.521-0.443-0.782-1.006-0.782-1.697c0-0.6,0.867-2.648,2.594-6.138
		c-0.17-0.37-0.237-0.709-0.218-1.03c0.049-0.57,0.624-1.011,1.721-1.333c1.684-2.908,3.551-5.926,5.611-9.052
		c2.956-4.484,4.781-6.726,5.465-6.726c1.303,0,2.176,0.788,2.612,2.363c0.236,1.266,0.612,3.163,1.121,5.696
		c0.721,3.411,1.6,7.307,2.642,11.7c0.085,0.327,0.388,1.109,0.909,2.339c0.423,1.019,0.636,1.782,0.636,2.291
		c0,0.691-0.255,1.261-0.77,1.727C206.505,40.63,205.917,40.849,205.269,40.825L205.269,40.825z M217.92,18.169L217.92,18.169
		c-0.097-0.012-0.787-0.054-2.078-0.139v9.428c0.297,0.012,0.557,0.018,0.781,0.018c2.896,0,5.047-0.364,6.447-1.085
		c0.6-0.31,1.152-0.715,1.654-1.224c0.503-0.509,0.757-0.897,0.757-1.152c0-1.326-0.842-2.605-2.52-3.835
		C221.363,19.017,219.684,18.35,217.92,18.169L217.92,18.169z M229.3,40.509L229.3,40.509c-0.636,0-1.224-0.248-1.757-0.745
		c-3.587-3.363-7.526-5.696-11.822-6.999c0.128,3.441,0.194,5.356,0.194,5.732c0,0.679-0.236,1.249-0.708,1.715
		c-0.473,0.466-1.067,0.703-1.775,0.703c-0.71,0-1.303-0.237-1.776-0.703c-0.472-0.467-0.709-1.036-0.709-1.709
		c0-0.89,0.012-2.218,0.036-3.987c0.018-1.769,0.031-3.102,0.031-3.987l0.036-14.33c0-0.77,0.23-1.467,0.691-2.091
		c0.606-0.806,1.442-1.169,2.502-1.085c2.878,0.212,4.351,0.327,4.423,0.339c1.654,0.2,3.066,0.594,4.223,1.187
		c5.053,2.545,7.58,5.696,7.58,9.464c0,1.545-0.527,2.921-1.588,4.109c-1.06,1.188-2.648,2.193-4.769,3.005
		c3.139,1.757,5.496,3.545,7.083,5.369c0.419,0.473,0.624,1,0.624,1.575c0,0.667-0.248,1.236-0.745,1.715
		C230.578,40.266,229.985,40.509,229.3,40.509L229.3,40.509z M9.923,17.011L9.923,17.011c-0.38,0-0.722,0-1.01,0.006
		c-0.294,0.007-0.545,0.025-0.747,0.049c0,0.564-0.006,1.402-0.018,2.529c-0.025,1.328-0.135,3.398-0.337,6.208
		c0.612,0.092,1.017,0.141,1.219,0.141c1.868,0,3.416-0.441,4.647-1.328c1.316-0.943,1.971-2.192,1.971-3.747
		c0-1.016-0.618-1.922-1.849-2.712C12.616,17.39,11.325,17.011,9.923,17.011L9.923,17.011z M9.029,30.553L9.029,30.553
		c-0.202,0-0.704-0.043-1.506-0.129c-0.067,1.678-0.104,4.426-0.104,8.253c0,0.637-0.22,1.176-0.661,1.635
		c-0.447,0.453-1.01,0.68-1.69,0.68c-0.679,0-1.249-0.226-1.696-0.68c-0.447-0.459-0.673-0.998-0.673-1.635v-5.002
		c0-1.855,0.122-4.598,0.361-8.235c0.226-3.698,0.343-6.453,0.355-8.271c0.012-3.11,0.888-4.598,2.62-4.463
		c0.404-0.11,0.968-0.19,1.684-0.245c0.716-0.055,1.592-0.08,2.621-0.08c2.345,0,4.543,0.759,6.599,2.277
		c2.284,1.696,3.429,3.765,3.429,6.208c0,3.061-1.212,5.492-3.643,7.298C14.575,29.757,12.01,30.553,9.029,30.553L9.029,30.553z
		 M40.344,17.567L40.344,17.567c-0.238,0-0.49-0.037-0.753-0.11c-1.935-0.52-3.82-0.783-5.651-0.783
		c-0.894,0-1.855,0.073-2.884,0.214c-1.029,0.141-2.124,0.355-3.281,0.643c0,1.592-0.055,3.949-0.16,7.084
		c0.668-0.049,3.007-0.27,7.011-0.661c2.283-0.227,3.734-0.343,4.34-0.343c0.704,0,1.31,0.227,1.812,0.673
		c0.502,0.447,0.753,1.041,0.753,1.781c0,1.427-0.76,2.235-2.278,2.424c-0.955,0.074-2.388,0.19-4.286,0.361
		c-1.702,0.189-4.254,0.422-7.677,0.698c-0.08,1.518-0.123,2.743-0.123,3.68c0,2.345,0.135,3.679,0.41,3.998
		c0.129,0.159,0.888,0.239,2.259,0.239c0.741,0,1.861-0.018,3.355-0.055c1.494-0.037,2.615-0.055,3.355-0.055
		c0.239,0,0.594-0.037,1.059-0.11c0.465-0.067,0.814-0.104,1.041-0.104c0.691,0,1.286,0.196,1.775,0.588
		c0.563,0.447,0.845,1.066,0.845,1.867c0,1.34-0.698,2.137-2.1,2.4c-1.193,0.227-3.674,0.343-7.445,0.343
		c-3.894,0-6.435-0.527-7.622-1.58c-1.304-1.157-1.953-3.673-1.953-7.53c0-1.604,0.117-4.01,0.349-7.225
		c0.233-3.208,0.349-5.608,0.349-7.2c0-0.422-0.061-1.041-0.178-1.855c-0.116-0.82-0.177-1.439-0.177-1.861
		c0-1.818,0.839-2.724,2.51-2.724c0.527,0,1.01,0.147,1.451,0.447c1.384-0.343,2.706-0.606,3.955-0.778
		c1.249-0.171,2.425-0.257,3.539-0.257c3.012,0,5.418,0.343,7.224,1.035c1.096,0.416,1.647,1.181,1.647,2.277
		c0,0.624-0.215,1.175-0.643,1.653C41.691,17.292,41.085,17.567,40.344,17.567L40.344,17.567z M66.279,19.062L66.279,19.062
		c-0.931,0-2.388-0.067-4.359-0.196c-1.904-0.135-3.355-0.196-4.359-0.184c0.049,1.366,0.208,3.79,0.484,7.279
		c0.25,3.085,0.373,5.523,0.373,7.316c0,0.41,0.043,1.01,0.129,1.813c0.079,0.802,0.122,1.408,0.122,1.812
		c0,0.894-0.19,1.702-0.57,2.418c-0.49,0.924-1.187,1.383-2.1,1.383c-0.655,0-1.237-0.208-1.738-0.631
		c-0.563-0.465-0.845-1.047-0.845-1.757c0-0.165,0.03-0.417,0.092-0.759c0.055-0.343,0.086-0.6,0.086-0.777
		c0-0.551-0.037-1.384-0.116-2.498c-0.08-1.108-0.116-1.947-0.116-2.51c0-1.598-0.123-3.771-0.373-6.508
		c-0.288-3.141-0.453-5.314-0.502-6.508h-0.931c-2.669,0-4.788-0.19-6.355-0.569c-1.328-0.324-1.99-1.108-1.99-2.351
		c0-0.612,0.215-1.163,0.643-1.653c0.508-0.588,1.163-0.851,1.977-0.79c0.416,0.025,1.365,0.123,2.854,0.306
		c1.181,0.129,2.136,0.196,2.865,0.196c0.735,0,1.825-0.012,3.275-0.037c1.451-0.025,2.547-0.037,3.275-0.037
		c0.907,0,2.272,0.061,4.09,0.183c1.818,0.129,3.177,0.19,4.09,0.19c0.716,0,1.316,0.233,1.8,0.698
		c0.484,0.471,0.729,1.047,0.729,1.727c0,0.685-0.245,1.261-0.729,1.732C67.595,18.823,66.995,19.062,66.279,19.062z"/>
	<path fill="#2C2A2A" d="M14.165,2.817c6.557-4.774,16.445-3.388,21.139,3.515c4.694,6.904,9.767,19.194,5.306,23.529
		c-4.461,4.335-16.198,2.633-25.452-4.561C5.905,18.107,7.608,7.591,14.165,2.817L14.165,2.817z M118.248,28.168L118.248,28.168
		c4.774,6.557,15.291,8.26,22.485-0.994c7.194-9.253,8.896-20.99,4.56-25.451c-4.335-4.461-16.626,0.612-23.529,5.306
		C114.86,11.723,113.474,21.611,118.248,28.168L118.248,28.168z M169.587,22.894L169.587,22.894
		c-1.954,2.055-4.602,3.02-4.798,10.366c0.048,3.14,1.257,3.477,2.234,5.514c4.553,6.113,13.306,3.053,18.085,0.432
		c4.588-3.319,6.12-9.132,0.918-15.908C182.348,18.871,175.127,17.675,169.587,22.894L169.587,22.894z M203.366,9.529L203.366,9.529
		c-2.225,2.095-5.469,3.409-4.792,9.6c0.457,2.621,2.037,2.671,3.536,4.19c6.56,4.249,17.302,0.01,23.047-3.1
		c5.414-3.658,6.629-8.82-0.839-13.499C219.082,3.717,209.751,4.098,203.366,9.529L203.366,9.529z M64.23,25.762L64.23,25.762
		c-2.503,3.575-6.539,6.018-4.268,15.788c1.189,4.118,3.306,4.026,5.64,6.279c9.686,6.043,23.072-1.868,30.045-7.439
		c6.411-6.407,6.89-14.748-4.102-21.376C83.902,14.807,71.545,16.429,64.23,25.762z"/>
	<path fill="#2C2A2A" d="M10.701,23.057c0.498-0.126,0.974-0.327,1.397-0.632l0.006-0.004c0.558-0.4,0.828-0.812,0.845-1.489
		c-0.104-0.165-0.471-0.42-0.608-0.508l-0.007-0.005c-0.474-0.307-0.966-0.513-1.491-0.621
		C10.819,20.886,10.767,21.972,10.701,23.057L10.701,23.057z M222.568,23.495L222.568,23.495c-0.224,0.194-0.468,0.362-0.732,0.499
		c-0.867,0.446-2.162,0.637-3.295,0.72v-3.708c1.025,0.247,1.963,0.723,2.832,1.354C221.697,22.599,222.259,23.051,222.568,23.495
		L222.568,23.495z M107.096,30.502L107.096,30.502c0.066-1.607,0.182-3.212,0.298-4.815c0.052-0.716,0.104-1.432,0.151-2.149
		c-0.714,0.362-1.52,0.546-2.375,0.546c-2.031,0-3.616-1.064-4.564-2.762c-0.462,0.074-1.211,0.685-1.512,0.951
		c-0.536,0.474-1.039,1.012-1.5,1.56c-1.669,1.98-3.467,4.686-3.467,7.369c0,0.592,0.162,1.041,0.567,1.475
		c0.332,0.352,0.65,0.529,1.141,0.529c0.811,0,1.597-0.255,2.317-0.614c0.839-0.46,1.636-1.043,2.426-1.582l0.019-0.013l0.01-0.007
		c1.051-0.698,2.296-1.372,3.59-1.372C105.26,29.619,106.249,29.925,107.096,30.502L107.096,30.502z M19.575,29.284L19.575,29.284
		c-0.39,0.374-0.806,0.723-1.244,1.048c-2.432,1.801-5.216,2.707-8.187,2.885c-0.031,1.82-0.028,3.64-0.028,5.459
		c0,1.333-0.49,2.542-1.413,3.503l-0.012,0.013l-0.013,0.013c-0.971,0.985-2.233,1.484-3.612,1.484
		c-1.377,0-2.646-0.499-3.618-1.485l-0.01-0.01C0.504,41.234,0,40.02,0,38.677v-5.002c0-2.805,0.183-5.608,0.367-8.406
		c0.165-2.702,0.331-5.408,0.35-8.114c0.01-2.467,0.504-5.353,2.905-6.624c0.66-0.349,1.387-0.52,2.13-0.53
		c0.579-0.122,1.17-0.184,1.759-0.229c0.941-0.073,1.885-0.088,2.828-0.088c3.028,0,5.778,1.015,8.203,2.806l0.005,0.004
		c0.487,0.362,0.952,0.753,1.385,1.176c0.496-2.418,2.305-4.004,5.07-4.004c0.602,0,1.194,0.099,1.759,0.299
		c1.084-0.246,2.179-0.453,3.281-0.605c1.294-0.177,2.599-0.282,3.906-0.282c2.705,0,5.643,0.239,8.185,1.212
		c0.524,0.199,1.019,0.465,1.461,0.804c0.755-0.328,1.577-0.453,2.414-0.393c1,0.06,1.994,0.195,2.987,0.318
		c0.845,0.092,1.703,0.178,2.554,0.178c1.077,0,2.153-0.018,3.23-0.036c1.107-0.019,2.214-0.037,3.321-0.037
		c1.425,0,2.85,0.094,4.271,0.19l0.009,0.001c1.297,0.092,2.599,0.183,3.899,0.183c1.389,0,2.667,0.487,3.671,1.453l0.011,0.011
		c1.007,0.98,1.544,2.254,1.544,3.659c0,1.408-0.535,2.682-1.543,3.664c-1.003,0.978-2.286,1.476-3.683,1.476
		c-1.513,0-3.026-0.103-4.535-0.202l-0.015-0.001c-0.44-0.031-0.88-0.062-1.321-0.089c0.095,1.427,0.212,2.852,0.325,4.277
		c0.203,2.506,0.382,5.019,0.382,7.533c0,0.507,0.06,1.022,0.113,1.525l0.002,0.021c0.068,0.69,0.135,1.384,0.135,2.079
		c0,1.288-0.279,2.541-0.883,3.682c-0.919,1.734-2.492,2.818-4.484,2.818c-1.286,0-2.48-0.43-3.466-1.256
		c-1.169-0.97-1.815-2.307-1.815-3.829c0-0.408,0.059-0.812,0.13-1.213c0.016-0.097,0.045-0.235,0.048-0.332
		c0-0.766-0.055-1.533-0.109-2.297c-0.065-0.899-0.123-1.801-0.123-2.703c0-2.089-0.172-4.182-0.362-6.262
		c-0.124-1.359-0.254-2.717-0.357-4.078c-1.801-0.05-3.645-0.204-5.382-0.625c-0.767-0.187-1.498-0.504-2.127-0.973
		c-0.654,0.29-1.361,0.431-2.09,0.431c-0.495,0-0.987-0.074-1.464-0.205c-1.61-0.432-3.271-0.688-4.94-0.688
		c-0.842,0-1.684,0.075-2.517,0.189c-0.324,0.045-0.648,0.096-0.97,0.153c-0.012,0.65-0.027,1.3-0.045,1.95
		c1.318-0.128,2.635-0.267,3.953-0.395c0.95-0.095,1.9-0.186,2.852-0.262c0.584-0.046,1.168-0.095,1.755-0.095
		c1.348,0,2.598,0.458,3.606,1.356c1.106,0.984,1.657,2.325,1.657,3.796c0,2.863-1.845,4.753-4.641,5.102l-0.063,0.008l-0.064,0.005
		c-1.408,0.109-2.816,0.229-4.222,0.356c-1.782,0.198-3.568,0.359-5.355,0.508c-0.011,0.395-0.017,0.79-0.017,1.185
		c0,0.505-0.004,1.024,0.012,1.539c1.083-0.001,2.165-0.027,3.248-0.054c1.14-0.028,2.28-0.056,3.421-0.056
		c0.199,0,0.44-0.046,0.637-0.077l0.019-0.003l0.017-0.003c0.473-0.068,0.948-0.132,1.427-0.132c1.267,0,2.462,0.382,3.456,1.175
		c1.243,0.988,1.862,2.401,1.862,3.978c0,2.698-1.678,4.559-4.296,5.051c-1.028,0.195-2.089,0.252-3.133,0.3
		c-1.603,0.074-3.209,0.089-4.814,0.089c-2.938,0-7.118-0.225-9.412-2.259c-2.505-2.222-2.861-6.404-2.861-9.549
		C19.451,31.913,19.501,30.598,19.575,29.284L19.575,29.284z M209.33,41.653L209.33,41.653c0.132,0.167,0.276,0.327,0.43,0.479
		c0.995,0.982,2.277,1.48,3.671,1.48c1.393,0,2.675-0.499,3.669-1.479c0.992-0.98,1.512-2.244,1.512-3.636
		c0-0.578-0.028-1.155-0.048-1.733c2.624,1.267,4.998,2.966,7.133,4.968l0.004,0.004c0.995,0.928,2.23,1.471,3.598,1.471
		c1.385,0,2.649-0.516,3.646-1.475c1.015-0.978,1.572-2.245,1.572-3.659c0-1.259-0.464-2.412-1.293-3.354
		c-1.12-1.285-2.43-2.416-3.814-3.423c0.533-0.414,1.032-0.871,1.483-1.376c1.485-1.663,2.273-3.673,2.273-5.905
		c0-5.739-4.311-9.478-9.056-11.87c-1.573-0.806-3.323-1.239-5.071-1.455c-0.44-0.067-0.884-0.078-1.326-0.112
		c-1.089-0.084-2.177-0.164-3.266-0.245c-1.945-0.153-3.687,0.587-4.865,2.155l-0.012,0.016c-0.801,1.084-1.218,2.342-1.219,3.69
		l-0.037,14.327v0.006c0,0.102,0,0.203-0.001,0.305c-0.719-3.082-1.415-6.169-2.069-9.266c-0.378-1.88-0.759-3.76-1.111-5.646
		l-0.021-0.114l-0.031-0.112c-0.699-2.524-2.481-4.341-5.212-4.341c-1.713,0-2.981,1.457-3.974,2.678
		c-1.357,1.67-2.56,3.466-3.743,5.261c-1.806,2.74-3.547,5.523-5.208,8.353c-1.367,0.634-2.424,1.693-2.559,3.288l-0.003,0.036
		l-0.003,0.037c-0.017,0.302-0.004,0.603,0.039,0.901c-0.832,1.667-2.418,4.883-2.418,6.422c0,1.479,0.606,2.796,1.733,3.753
		c0.996,0.846,2.193,1.308,3.503,1.308c1.91,0,3.481-0.954,4.467-2.572l0.05-0.082l0.044-0.085c0.795-1.54,1.591-3.082,2.312-4.659
		c0.866-0.099,1.736-0.163,2.605-0.225c0.712-0.046,1.424-0.091,2.135-0.15c0.322,1.018,0.693,2.02,1.131,2.994
		c0.957,2.184,2.503,4.8,5.186,4.905c1.355,0.051,2.647-0.44,3.655-1.341l0.009-0.008C209.009,42.008,209.176,41.836,209.33,41.653
		L209.33,41.653z M129.976,22.169L129.976,22.169c0-0.107-0.001-0.215-0.001-0.322c0-0.686-0.051-1.375-0.116-2.061
		c-0.651,0.294-1.363,0.444-2.113,0.444c-0.493,0-0.981-0.073-1.456-0.204c-1.591-0.427-3.233-0.681-4.882-0.681
		c-0.831,0-1.664,0.074-2.488,0.187c-0.313,0.043-0.625,0.092-0.937,0.147c-0.011,0.625-0.026,1.251-0.043,1.876
		c1.294-0.126,2.587-0.262,3.881-0.389c0.94-0.093,1.88-0.184,2.822-0.258c0.579-0.046,1.158-0.094,1.74-0.094
		c1.34,0,2.584,0.456,3.587,1.349C129.973,22.166,129.974,22.167,129.976,22.169L129.976,22.169z M129.91,35.732L129.91,35.732
		c0.017-0.286,0.028-0.573,0.028-0.858c0-1.074,0.035-2.148,0.069-3.222v-0.01c0.023-0.646,0.045-1.293,0.059-1.94
		c-0.784,0.707-1.831,1.162-3.063,1.316l-0.063,0.008l-0.064,0.005c-1.394,0.107-2.786,0.226-4.177,0.352
		c-1.756,0.195-3.516,0.354-5.277,0.502c-0.01,0.382-0.017,0.764-0.017,1.147c0,0.492-0.004,0.995,0.012,1.495
		c1.063-0.001,2.125-0.027,3.187-0.053c1.129-0.028,2.258-0.055,3.386-0.055c0.196,0,0.434-0.045,0.629-0.076l0.021-0.004
		l0.012-0.002c0.469-0.068,0.942-0.13,1.416-0.13c1.26,0,2.45,0.38,3.438,1.169C129.649,35.489,129.784,35.608,129.91,35.732
		L129.91,35.732z M131.448,11.509L131.448,11.509c1.067-0.937,2.37-1.449,3.8-1.449c2.242,0,3.913,1.711,5.115,3.418l0.004,0.005
		c3.368,4.812,6.992,9.503,11,13.81c-0.007-1.162-0.018-2.324-0.035-3.486c-0.022-1.449-0.045-2.899-0.126-4.345
		c-0.042-0.575-0.133-1.149-0.211-1.719c-0.106-0.77-0.201-1.548-0.201-2.326c0-3.197,2.146-5.146,5.291-5.146
		c1.991,0,3.274,1.12,4.092,2.626c0.116-0.168,0.243-0.329,0.379-0.486c1.07-1.234,2.548-1.819,4.171-1.704
		c0.99,0.059,1.974,0.194,2.957,0.315c0.836,0.091,1.684,0.176,2.525,0.176c1.065,0,2.131-0.018,3.196-0.036
		c1.096-0.018,2.191-0.037,3.287-0.037c1.412,0,2.822,0.093,4.229,0.188l0.007,0c1.284,0.091,2.572,0.181,3.859,0.181
		c1.382,0,2.653,0.483,3.652,1.445l0.013,0.013c1,0.975,1.535,2.243,1.535,3.64c0,1.4-0.533,2.669-1.536,3.647
		c-0.998,0.973-2.274,1.469-3.664,1.469c-1.498,0-2.996-0.103-4.493-0.2l-0.012-0.001c-0.425-0.03-0.85-0.06-1.276-0.086
		c0.094,1.402,0.209,2.802,0.32,4.202c0.202,2.48,0.379,4.967,0.379,7.457c0,0.501,0.059,1.01,0.112,1.508l0.002,0.018
		c0.068,0.685,0.134,1.372,0.134,2.061c0,1.279-0.277,2.523-0.877,3.656c-0.914,1.726-2.48,2.805-4.462,2.805
		c-1.279,0-2.468-0.428-3.448-1.25c-1.163-0.965-1.806-2.296-1.806-3.811c0-0.406,0.058-0.807,0.129-1.206
		c0.016-0.095,0.044-0.23,0.046-0.324c-0.001-0.757-0.054-1.516-0.108-2.271c-0.063-0.891-0.122-1.783-0.122-2.676
		c0-2.067-0.17-4.138-0.359-6.195c-0.122-1.337-0.25-2.673-0.352-4.011c-1.777-0.05-3.595-0.204-5.309-0.619
		c-0.586-0.143-1.139-0.36-1.637-0.652c0.018,0.595,0.023,1.191,0.023,1.788c0,0.947-0.023,1.893-0.036,2.839
		c-0.045,3.727-0.109,7.454-0.109,11.182c0,1.073-0.163,2.161-0.329,3.22c-0.435,2.806-2.399,4.574-5.259,4.574
		c-1.772,0-3.324-0.941-4.607-2.09l-0.005-0.004c-3.967-3.577-7.597-7.568-11.013-11.688c0.013,0.745,0.031,1.491,0.048,2.237
		c0.033,1.428,0.061,2.856,0.061,4.285c0,2.707-0.44,6.128-3.176,7.465c-0.648,0.317-1.353,0.468-2.073,0.468
		c-1.525,0-2.934-0.513-4.011-1.614c-0.205-0.21-0.389-0.433-0.551-0.667c-0.73,1.168-1.96,1.958-3.53,2.253
		c-1.018,0.193-2.07,0.25-3.104,0.298c-1.587,0.074-3.176,0.088-4.765,0.088c-2.916,0-7.056-0.224-9.334-2.243
		c-1.153-1.023-1.836-2.455-2.242-3.954c-0.038,0.034-0.077,0.068-0.116,0.101l-0.008,0.007c-3.333,2.812-7.246,4.756-11.683,4.756
		c-3.408,0-6.368-1.277-8.708-3.756l-0.006-0.007c-2.206-2.359-3.358-5.215-3.358-8.448c0-5.254,2.53-9.942,5.829-13.875
		l0.005-0.006c2.821-3.348,6.526-6.213,11.103-6.213c0.546,0,1.093,0.017,1.636,0.064c0.069,0.006,0.138,0.012,0.207,0.019
		c0.786-0.425,1.655-0.634,2.556-0.634c1.257,0,2.365,0.403,3.221,1.167c0.921-1.343,2.443-2.039,4.244-2.039
		c0.596,0,1.183,0.097,1.742,0.294c1.072-0.243,2.153-0.448,3.242-0.597c1.282-0.176,2.575-0.279,3.869-0.279
		c2.681,0,5.592,0.236,8.111,1.201C130.25,10.579,130.908,10.979,131.448,11.509z"/>
	<path fill="#FFFFFF" d="M223.714,23.713c-0.077,0.088-0.162,0.175-0.223,0.236c-0.358,0.362-0.762,0.668-1.214,0.901
		c-1.237,0.637-3.141,0.83-4.7,0.878v-5.849c0.049,0.004,0.098,0.009,0.148,0.013l0.019,0.002c1.552,0.16,2.941,0.775,4.197,1.687
		C222.573,22.046,223.523,22.849,223.714,23.713L223.714,23.713z M9.663,24.188L9.663,24.188c1.067-0.072,2.117-0.344,2.998-0.98
		l0.004-0.003c0.832-0.596,1.247-1.309,1.247-2.337c0-0.522-0.67-1.008-1.051-1.253l-0.005-0.004
		c-0.898-0.582-1.864-0.866-2.933-0.866c-0.01,0-0.021,0-0.032,0c-0.003,0.29-0.006,0.579-0.009,0.868l0,0.013
		C9.853,21.139,9.766,22.668,9.663,24.188L9.663,24.188z M20.74,26.263L20.74,26.263c-0.714,1.246-1.71,2.35-2.983,3.296
		c-2.522,1.868-5.44,2.698-8.558,2.728c-0.05,2.128-0.047,4.269-0.047,6.391c0,1.085-0.394,2.054-1.145,2.836L8,41.522l-0.008,0.008
		c-0.789,0.8-1.804,1.197-2.925,1.197c-1.12,0-2.142-0.397-2.931-1.197l-0.008-0.008c-0.76-0.781-1.165-1.753-1.165-2.844v-5.002
		c0-2.764,0.184-5.586,0.365-8.345c0.166-2.706,0.333-5.459,0.351-8.171c0.009-2.064,0.357-4.7,2.393-5.777
		c0.555-0.294,1.165-0.424,1.785-0.419c0.563-0.127,1.161-0.188,1.727-0.232c0.913-0.071,1.838-0.085,2.754-0.085
		c2.819,0,5.368,0.947,7.63,2.616l0.004,0.003c1.18,0.877,2.158,1.893,2.865,3.052c-0.047-0.413-0.08-0.829-0.08-1.231
		c0-2.668,1.507-4.459,4.244-4.459c0.591,0,1.157,0.115,1.686,0.341c1.151-0.269,2.314-0.495,3.484-0.656
		c1.25-0.171,2.512-0.273,3.775-0.273c2.566,0,5.427,0.224,7.842,1.149c0.663,0.252,1.225,0.612,1.665,1.064
		c0.726-0.46,1.575-0.658,2.491-0.593c0.968,0.058,1.977,0.195,2.939,0.314c0.873,0.095,1.786,0.184,2.665,0.184
		c1.082,0,2.165-0.018,3.246-0.037c1.101-0.019,2.204-0.037,3.304-0.037c1.393,0,2.817,0.094,4.207,0.187l0.006,0
		c1.309,0.093,2.654,0.185,3.967,0.185c1.14,0,2.179,0.391,3.002,1.183l0.007,0.007c0.821,0.799,1.253,1.823,1.253,2.969
		c0,1.148-0.43,2.173-1.252,2.975c-0.823,0.802-1.865,1.202-3.01,1.202c-1.48,0-2.996-0.103-4.472-0.2l-0.009-0.001
		c-0.796-0.056-1.607-0.113-2.417-0.147c0.103,1.794,0.252,3.595,0.393,5.373c0.2,2.464,0.379,4.983,0.379,7.456
		c0,0.531,0.062,1.1,0.119,1.628l0.001,0.013c0.064,0.65,0.131,1.33,0.131,1.983c0,1.131-0.24,2.228-0.771,3.231
		c-0.753,1.421-2.001,2.306-3.633,2.306c-1.061,0-2.036-0.351-2.849-1.033c-0.95-0.787-1.468-1.853-1.468-3.089
		c0-0.347,0.055-0.709,0.116-1.05c0.025-0.149,0.06-0.341,0.062-0.487c0-0.785-0.056-1.591-0.112-2.374
		c-0.063-0.871-0.12-1.761-0.12-2.635c0-2.101-0.175-4.258-0.366-6.35c-0.149-1.63-0.31-3.289-0.418-4.936
		c-2-0.022-4.141-0.152-6.053-0.615c-0.905-0.221-1.663-0.626-2.224-1.197c-0.651,0.414-1.402,0.628-2.22,0.628
		c-0.41,0-0.816-0.063-1.21-0.172c-1.694-0.455-3.438-0.722-5.193-0.722c-0.884,0-1.773,0.078-2.648,0.198
		c-0.6,0.082-1.198,0.187-1.791,0.31c-0.015,1.269-0.049,2.54-0.088,3.809c1.683-0.153,3.371-0.334,5.043-0.498
		c0.944-0.094,1.888-0.185,2.833-0.26c0.551-0.044,1.126-0.092,1.678-0.092c1.112,0,2.134,0.372,2.966,1.112
		c0.898,0.8,1.334,1.879,1.334,3.077c0,2.373-1.482,3.856-3.797,4.145l-0.041,0.006l-0.041,0.003
		c-1.415,0.109-2.831,0.23-4.245,0.358c-2.057,0.229-4.126,0.409-6.192,0.578c-0.028,0.692-0.047,1.385-0.047,2.074
		c0,0.504-0.009,1.673,0.07,2.497c0.317,0.009,0.644,0.005,0.865,0.005c1.103,0,2.21-0.027,3.313-0.054
		c1.131-0.028,2.266-0.056,3.398-0.056c0.244,0,0.546-0.051,0.787-0.089l0.012-0.002l0.012-0.002
		c0.419-0.061,0.866-0.122,1.289-0.122c1.049,0,2.034,0.309,2.856,0.965c1.011,0.803,1.499,1.939,1.499,3.224
		c0,2.234-1.348,3.698-3.512,4.104c-0.962,0.182-2.021,0.239-2.998,0.285c-1.586,0.073-3.181,0.088-4.769,0.088
		c-2.623,0-6.701-0.179-8.773-2.016c-2.253-1.998-2.537-6.027-2.537-8.828C20.414,30.925,20.574,28.567,20.74,26.263L20.74,26.263z
		 M209.358,39.62L209.358,39.62c0.187,0.685,0.549,1.303,1.079,1.827c0.814,0.803,1.853,1.203,2.994,1.203
		c1.141,0,2.18-0.4,2.993-1.202c0.808-0.799,1.225-1.815,1.225-2.95c0-0.587-0.03-1.188-0.05-1.775
		c-0.017-0.489-0.034-0.978-0.051-1.467c3.273,1.345,6.197,3.326,8.809,5.774l0.003,0.004c0.817,0.761,1.817,1.211,2.94,1.211
		c1.136,0,2.16-0.419,2.978-1.206c0.827-0.797,1.277-1.814,1.277-2.964c0-1.024-0.378-1.952-1.054-2.719
		c-1.346-1.545-3.021-2.889-4.777-4.059c0.907-0.562,1.747-1.227,2.452-2.017c1.328-1.487,2.028-3.269,2.028-5.264
		c0-5.335-4.118-8.788-8.529-11.011c-1.475-0.755-3.129-1.158-4.767-1.359c-0.394-0.061-0.875-0.076-1.268-0.106
		c-1.089-0.084-2.176-0.164-3.265-0.244c-1.619-0.128-3.041,0.468-4.021,1.772l-0.009,0.011c-0.679,0.919-1.03,1.976-1.03,3.118
		l-0.037,14.328v0.005c0,1.322-0.017,2.645-0.03,3.966c-0.01,0.749-0.021,1.499-0.027,2.249c-0.138-0.442-0.305-0.872-0.466-1.259
		l-0.004-0.01c-0.252-0.594-0.659-1.462-0.824-2.082c-0.917-3.867-1.804-7.742-2.626-11.63c-0.379-1.885-0.762-3.773-1.114-5.664
		l-0.014-0.073l-0.019-0.072c-0.584-2.108-1.998-3.634-4.284-3.634c-1.329,0-2.458,1.377-3.226,2.322
		c-1.321,1.625-2.534,3.436-3.686,5.184c-1.854,2.813-3.641,5.672-5.34,8.581c-1.147,0.465-2.158,1.262-2.272,2.612l-0.002,0.023
		l-0.001,0.024c-0.02,0.337,0.01,0.668,0.081,0.991c-0.852,1.708-2.46,4.983-2.46,6.277c0,1.196,0.482,2.244,1.394,3.019
		c0.822,0.698,1.799,1.078,2.88,1.078c1.57,0,2.832-0.778,3.644-2.11l0.033-0.053l0.028-0.055c0.859-1.664,1.744-3.38,2.512-5.105
		c1.058-0.142,2.149-0.223,3.196-0.297c0.952-0.061,1.928-0.124,2.894-0.218c0.361,1.238,0.79,2.46,1.317,3.632
		c0.783,1.789,2.11,4.245,4.342,4.333c1.114,0.041,2.146-0.355,2.975-1.096l0.007-0.006
		C208.756,40.938,209.151,40.318,209.358,39.62L209.358,39.62z M108.004,32.949L108.004,32.949c0.004-2.381,0.178-4.82,0.35-7.192
		c0.107-1.473,0.216-2.975,0.282-4.471c-0.032,0.049-0.066,0.098-0.1,0.146c-0.795,1.126-1.995,1.689-3.366,1.689
		c-1.843,0-3.195-1.055-3.942-2.702l-0.007-0.014c-0.007-0.015-0.014-0.032-0.022-0.049c-0.18-0.006-0.365-0.004-0.507-0.004
		c-1.287,0-3.094,1.979-3.836,2.861c-1.828,2.169-3.694,5.044-3.694,7.989c0,0.838,0.255,1.521,0.827,2.134
		c0.517,0.549,1.085,0.834,1.844,0.834c0.971,0,1.902-0.291,2.764-0.723c0.836-0.457,1.736-1.104,2.523-1.641l0.009-0.006
		l0.009-0.006c0.87-0.578,1.984-1.211,3.056-1.211c1.189,0,2.247,0.46,3.068,1.321C107.567,32.223,107.815,32.573,108.004,32.949
		L108.004,32.949z M108.171,36.18L108.171,36.18c-0.257,0.663-0.695,1.246-1.27,1.736l-0.006,0.005
		c-3.156,2.663-6.858,4.529-11.061,4.529c-3.144,0-5.848-1.166-8.006-3.452l-0.005-0.005c-2.04-2.182-3.097-4.801-3.097-7.789
		c0-5.017,2.456-9.503,5.604-13.257l0.002-0.003c2.627-3.118,6.096-5.871,10.367-5.871c0.518,0,1.039,0.016,1.554,0.061
		c0.167,0.014,0.334,0.031,0.501,0.051c0.694-0.438,1.489-0.663,2.344-0.663c1.62,0,2.778,0.788,3.436,2.036
		c0.482-1.787,1.871-2.908,4.029-2.908c0.585,0,1.146,0.113,1.67,0.336c1.138-0.265,2.288-0.489,3.445-0.648
		c1.239-0.17,2.488-0.27,3.738-0.27c2.542,0,5.376,0.222,7.769,1.138c0.975,0.371,1.73,0.976,2.199,1.77
		c0.18-0.235,0.386-0.456,0.614-0.662c0.907-0.832,2.016-1.288,3.251-1.288c1.882,0,3.327,1.589,4.326,3.008l0.003,0.004
		c3.825,5.466,8.053,10.868,12.761,15.671c-0.003-1.971-0.014-3.943-0.044-5.913c-0.022-1.46-0.045-2.934-0.127-4.392
		c-0.043-0.589-0.138-1.205-0.218-1.789c-0.099-0.716-0.192-1.471-0.192-2.194c0-2.662,1.714-4.182,4.328-4.182
		c2.441,0,3.593,2.165,4.138,4.65c-0.001-0.023-0.001-0.046-0.001-0.068c0-1.044,0.376-1.99,1.062-2.774
		c0.873-1.007,2.056-1.47,3.38-1.375c0.957,0.057,1.957,0.194,2.909,0.311c0.864,0.094,1.767,0.182,2.636,0.182
		c1.07,0,2.142-0.018,3.212-0.036c1.09-0.018,2.181-0.037,3.271-0.037c1.379,0,2.788,0.093,4.165,0.186l0.005,0
		c1.295,0.091,2.627,0.183,3.926,0.183c1.133,0,2.165,0.388,2.984,1.175l0.009,0.008c0.814,0.794,1.245,1.812,1.245,2.95
		c0,1.141-0.428,2.16-1.245,2.956c-0.818,0.798-1.853,1.196-2.992,1.196c-1.464,0-2.966-0.103-4.427-0.198l-0.009-0.001
		c-0.781-0.055-1.577-0.11-2.372-0.144c0.102,1.768,0.249,3.545,0.388,5.299c0.199,2.439,0.376,4.932,0.376,7.38
		c0,0.525,0.061,1.087,0.117,1.609l0.001,0.012c0.064,0.644,0.13,1.318,0.13,1.965c0,1.123-0.238,2.211-0.765,3.205
		c-0.748,1.412-1.99,2.292-3.611,2.292c-1.054,0-2.023-0.349-2.832-1.027c-0.943-0.782-1.46-1.842-1.46-3.07
		c0-0.344,0.056-0.704,0.116-1.043c0.024-0.146,0.058-0.335,0.061-0.478c0-0.777-0.056-1.574-0.111-2.349
		c-0.062-0.862-0.119-1.743-0.119-2.608c0-2.08-0.173-4.213-0.363-6.283c-0.147-1.608-0.305-3.244-0.412-4.869
		c-1.976-0.023-4.09-0.151-5.979-0.609c-1.491-0.365-2.581-1.234-3.045-2.518c0.232,1.74,0.24,3.468,0.24,4.59
		c0,0.941-0.024,1.887-0.037,2.827c-0.045,3.728-0.109,7.466-0.109,11.194c0,0.996-0.164,2.089-0.317,3.072
		c-0.362,2.337-1.923,3.758-4.307,3.758c-1.517,0-2.87-0.864-3.963-1.842l-0.004-0.004c-4.534-4.088-8.744-8.86-12.636-13.693
		c-0.003,0.264-0.004,0.527-0.004,0.79c0,1.395,0.035,2.795,0.066,4.19c0.032,1.419,0.061,2.843,0.061,4.263
		c0,2.277-0.305,5.46-2.635,6.599c-0.516,0.252-1.076,0.37-1.65,0.37c-1.266,0-2.428-0.41-3.321-1.323
		c-0.781-0.801-1.183-1.813-1.183-2.931c0-0.755,0.059-1.529,0.12-2.282c0.05-0.66,0.11-1.353,0.11-2.015
		c0-1.061,0.035-2.13,0.068-3.191v-0.007c0.036-1.026,0.072-2.058,0.072-3.084c0-1.11-0.028-2.224-0.054-3.333
		c-0.027-1.136-0.049-2.274-0.049-3.411c0-0.984-0.106-2.026-0.204-3.004c-0.025-0.254-0.051-0.511-0.075-0.769
		c-0.784,0.783-1.784,1.194-2.914,1.194c-0.407,0-0.81-0.062-1.202-0.17c-1.675-0.45-3.399-0.715-5.136-0.715
		c-0.874,0-1.752,0.078-2.618,0.196c-0.589,0.081-1.175,0.183-1.758,0.303c-0.015,1.245-0.048,2.491-0.086,3.736
		c1.659-0.151,3.323-0.33,4.971-0.491c0.934-0.092,1.868-0.182,2.803-0.257c0.546-0.043,1.115-0.091,1.663-0.091
		c1.105,0,2.12,0.37,2.947,1.106c0.893,0.795,1.326,1.868,1.326,3.059c0,2.358-1.473,3.833-3.773,4.12l-0.041,0.005l-0.041,0.003
		c-1.401,0.108-2.801,0.228-4.201,0.354c-2.03,0.225-4.074,0.403-6.113,0.57c-0.027,0.679-0.046,1.36-0.046,2.036
		c0,0.497-0.009,1.64,0.068,2.454c0.309,0.009,0.625,0.005,0.84,0.005c1.091,0,2.187-0.027,3.278-0.054
		c1.119-0.027,2.243-0.055,3.363-0.055c0.241,0,0.54-0.05,0.778-0.088l0.011-0.002l0.011-0.001c0.415-0.06,0.858-0.121,1.278-0.121
		c1.043,0,2.021,0.307,2.838,0.959c1.005,0.798,1.49,1.928,1.49,3.205c0,2.219-1.341,3.675-3.491,4.079
		c-0.953,0.181-2.002,0.237-2.969,0.282c-1.571,0.072-3.149,0.087-4.721,0.087c-2.602,0-6.639-0.179-8.694-2
		C109.052,40.478,108.426,38.305,108.171,36.18z"/>
	<path fill="#E52327" d="M105.17,21.386c-1.066,0-1.854-0.564-2.363-1.684c-0.236-0.533-0.473-0.854-0.709-0.963
		c-0.176-0.079-0.649-0.121-1.406-0.121c-1.491,0-3.211,1.157-5.162,3.478c-2.733,3.242-4.103,6.277-4.103,9.107
		c0,1.291,0.43,2.394,1.297,3.321c0.867,0.921,1.896,1.382,3.108,1.382c1.169,0,2.357-0.31,3.568-0.921
		c0.424-0.23,1.321-0.806,2.697-1.745c0.921-0.612,1.624-0.921,2.096-0.921c0.709,0,1.315,0.261,1.812,0.782
		c0.461,0.485,0.691,1.041,0.691,1.666c0,0.703-0.309,1.309-0.921,1.83c-3.254,2.745-6.569,4.12-9.943,4.12
		c-2.667,0-4.914-0.969-6.744-2.908c-1.751-1.872-2.63-4.071-2.63-6.605c0-3.963,1.733-8.01,5.199-12.142
		c2.951-3.502,5.962-5.254,9.041-5.254c0.515,0,0.988,0.018,1.406,0.055c0.424,0.036,0.794,0.085,1.115,0.157
		c0.515-0.508,1.145-0.763,1.878-0.763c1.206,0,1.951,0.691,2.236,2.079c0.2,0.994,0.303,2.151,0.303,3.478
		c0,0.594-0.17,1.133-0.515,1.618C106.673,21.065,106.018,21.386,105.17,21.386L105.17,21.386z M127.747,17.533L127.747,17.533
		c-0.236,0-0.484-0.036-0.745-0.109c-1.915-0.515-3.781-0.776-5.593-0.776c-0.884,0-1.836,0.073-2.854,0.212
		c-1.018,0.139-2.103,0.351-3.248,0.636c0,1.576-0.055,3.908-0.157,7.01c0.66-0.048,2.975-0.267,6.938-0.654
		c2.26-0.224,3.696-0.34,4.296-0.34c0.697,0,1.296,0.225,1.793,0.667c0.497,0.442,0.746,1.03,0.746,1.763
		c0,1.412-0.752,2.211-2.254,2.399c-0.946,0.073-2.364,0.188-4.242,0.358c-1.685,0.187-4.211,0.418-7.598,0.69
		c-0.079,1.503-0.121,2.714-0.121,3.642c0,2.32,0.133,3.641,0.406,3.957c0.127,0.157,0.879,0.236,2.236,0.236
		c0.733,0,1.842-0.018,3.321-0.054c1.479-0.037,2.588-0.054,3.321-0.054c0.236,0,0.588-0.036,1.049-0.109
		c0.46-0.066,0.805-0.103,1.03-0.103c0.685,0,1.273,0.194,1.757,0.582c0.557,0.442,0.836,1.053,0.836,1.848
		c0,1.326-0.691,2.115-2.078,2.375c-1.182,0.225-3.635,0.34-7.368,0.34c-3.854,0-6.368-0.521-7.543-1.564
		c-1.291-1.145-1.934-3.636-1.934-7.453c0-1.588,0.115-3.969,0.346-7.15c0.23-3.175,0.346-5.55,0.346-7.126
		c0-0.418-0.061-1.03-0.176-1.836c-0.115-0.812-0.176-1.424-0.176-1.842c0-1.799,0.83-2.696,2.484-2.696
		c0.522,0,1,0.145,1.436,0.442c1.369-0.339,2.678-0.6,3.914-0.769c1.236-0.17,2.399-0.254,3.502-0.254
		c2.981,0,5.363,0.339,7.15,1.023c1.085,0.412,1.63,1.17,1.63,2.254c0,0.618-0.212,1.164-0.636,1.636
		C129.08,17.26,128.48,17.533,127.747,17.533L127.747,17.533z M158.831,35.922L158.831,35.922c0,0.594-0.097,1.527-0.297,2.806
		c-0.236,1.527-1.102,2.29-2.593,2.29c-0.83,0-1.763-0.467-2.806-1.4c-4.556-4.108-9.7-9.864-15.426-17.274
		c-0.073,3.078-0.11,4.962-0.11,5.659c0,0.939,0.024,2.345,0.067,4.229c0.042,1.878,0.061,3.29,0.061,4.224
		c0,3.49-0.849,5.235-2.551,5.235c-0.867,0-1.558-0.266-2.079-0.8c-0.461-0.472-0.69-1.048-0.69-1.721
		c0-0.473,0.036-1.188,0.115-2.145c0.072-0.964,0.114-1.678,0.114-2.151c0-0.697,0.025-1.745,0.067-3.139
		c0.048-1.399,0.073-2.448,0.073-3.144c0-0.746-0.018-1.867-0.055-3.375c-0.037-1.503-0.049-2.624-0.049-3.369
		c0-0.71-0.072-1.77-0.212-3.175c-0.139-1.412-0.212-2.472-0.212-3.181c0-0.709,0.303-1.345,0.915-1.896
		c0.606-0.557,1.302-0.836,2.084-0.836c0.873,0,1.842,0.758,2.909,2.272c5.368,7.671,10.67,13.924,15.9,18.766
		c0.012-0.382,0.018-1.279,0.018-2.702c0-5.835-0.061-9.767-0.176-11.803c-0.024-0.346-0.103-0.982-0.23-1.915
		c-0.115-0.83-0.176-1.485-0.176-1.957c0-1.63,0.866-2.448,2.593-2.448c1.927,0,2.89,2.975,2.89,8.931
		c0,0.127-0.012,1.061-0.036,2.805C158.867,30.718,158.831,34.456,158.831,35.922L158.831,35.922z M184.789,19.011L184.789,19.011
		c0.708,0,1.302-0.237,1.781-0.703c0.478-0.467,0.721-1.036,0.721-1.715c0-0.672-0.243-1.242-0.721-1.708
		c-0.479-0.461-1.073-0.691-1.781-0.691c-0.903,0-2.249-0.061-4.048-0.188c-1.799-0.122-3.151-0.182-4.047-0.182
		c-0.721,0-1.806,0.012-3.242,0.036c-1.436,0.024-2.515,0.036-3.242,0.036c-0.721,0-1.667-0.067-2.836-0.194
		c-1.472-0.181-2.411-0.279-2.824-0.303c-0.806-0.06-1.454,0.201-1.957,0.782c-0.424,0.485-0.636,1.03-0.636,1.636
		c0,1.23,0.654,2.005,1.969,2.326c1.551,0.376,3.648,0.563,6.289,0.563h0.921c0.048,1.182,0.212,3.333,0.497,6.441
		c0.248,2.708,0.369,4.859,0.369,6.441c0,0.557,0.036,1.387,0.115,2.483c0.079,1.104,0.115,1.927,0.115,2.473
		c0,0.176-0.03,0.43-0.084,0.769c-0.06,0.339-0.091,0.588-0.091,0.752c0,0.703,0.279,1.278,0.836,1.739
		c0.497,0.418,1.073,0.624,1.721,0.624c0.903,0,1.594-0.455,2.078-1.37c0.376-0.709,0.564-1.508,0.564-2.393
		c0-0.4-0.042-1-0.121-1.794c-0.085-0.793-0.127-1.387-0.127-1.793c0-1.776-0.121-4.187-0.37-7.241
		c-0.273-3.454-0.43-5.854-0.478-7.205c0.994-0.012,2.43,0.049,4.314,0.182C182.425,18.944,183.867,19.011,184.789,19.011
		L184.789,19.011z M198.646,22.61L198.646,22.61c-0.927,1.588-2.2,3.745-3.817,6.477c0.533-0.122,1.357-0.212,2.484-0.285
		c1.327-0.079,2.163-0.145,2.503-0.193C199.531,27.07,199.143,25.07,198.646,22.61L198.646,22.61z M205.269,40.825L205.269,40.825
		c-0.933-0.037-1.878-1.14-2.823-3.303c-0.63-1.4-1.164-3.006-1.618-4.829c-0.872,0.127-2.302,0.26-4.296,0.388
		c-1.866,0.133-3.296,0.285-4.29,0.46c-0.545,1.303-1.49,3.26-2.842,5.878c-0.521,0.854-1.242,1.278-2.163,1.278
		c-0.654,0-1.236-0.224-1.757-0.666c-0.521-0.443-0.782-1.006-0.782-1.697c0-0.6,0.867-2.648,2.594-6.138
		c-0.17-0.37-0.237-0.709-0.218-1.03c0.049-0.57,0.624-1.011,1.721-1.333c1.684-2.908,3.551-5.926,5.611-9.052
		c2.956-4.484,4.781-6.726,5.465-6.726c1.303,0,2.176,0.788,2.612,2.363c0.236,1.266,0.612,3.163,1.121,5.696
		c0.721,3.411,1.6,7.307,2.642,11.7c0.085,0.327,0.388,1.109,0.909,2.339c0.423,1.019,0.636,1.782,0.636,2.291
		c0,0.691-0.255,1.261-0.77,1.727C206.505,40.63,205.917,40.849,205.269,40.825L205.269,40.825z M217.92,18.169L217.92,18.169
		c-0.097-0.012-0.787-0.054-2.078-0.139v9.428c0.297,0.012,0.557,0.018,0.781,0.018c2.896,0,5.047-0.364,6.447-1.085
		c0.6-0.31,1.152-0.715,1.654-1.224c0.503-0.509,0.757-0.897,0.757-1.152c0-1.326-0.842-2.605-2.52-3.835
		C221.363,19.017,219.684,18.35,217.92,18.169L217.92,18.169z M229.3,40.509L229.3,40.509c-0.636,0-1.224-0.248-1.757-0.745
		c-3.587-3.363-7.526-5.696-11.822-6.999c0.128,3.441,0.194,5.356,0.194,5.732c0,0.679-0.236,1.249-0.708,1.715
		c-0.473,0.466-1.067,0.703-1.775,0.703c-0.71,0-1.303-0.237-1.776-0.703c-0.472-0.467-0.709-1.036-0.709-1.709
		c0-0.89,0.012-2.218,0.036-3.987c0.018-1.769,0.031-3.102,0.031-3.987l0.036-14.33c0-0.77,0.23-1.467,0.691-2.091
		c0.606-0.806,1.442-1.169,2.502-1.085c2.878,0.212,4.351,0.327,4.423,0.339c1.654,0.2,3.066,0.594,4.223,1.187
		c5.053,2.545,7.58,5.696,7.58,9.464c0,1.545-0.527,2.921-1.588,4.109c-1.06,1.188-2.648,2.193-4.769,3.005
		c3.139,1.757,5.496,3.545,7.083,5.369c0.419,0.473,0.624,1,0.624,1.575c0,0.667-0.248,1.236-0.745,1.715
		C230.578,40.266,229.985,40.509,229.3,40.509L229.3,40.509z M9.923,17.011L9.923,17.011c-0.38,0-0.722,0-1.01,0.006
		c-0.294,0.007-0.545,0.025-0.747,0.049c0,0.564-0.006,1.402-0.018,2.529c-0.025,1.328-0.135,3.398-0.337,6.208
		c0.612,0.092,1.017,0.141,1.219,0.141c1.868,0,3.416-0.441,4.647-1.328c1.316-0.943,1.971-2.192,1.971-3.747
		c0-1.016-0.618-1.922-1.849-2.712C12.616,17.39,11.325,17.011,9.923,17.011L9.923,17.011z M9.029,30.553L9.029,30.553
		c-0.202,0-0.704-0.043-1.506-0.129c-0.067,1.678-0.104,4.426-0.104,8.253c0,0.637-0.22,1.176-0.661,1.635
		c-0.447,0.453-1.01,0.68-1.69,0.68c-0.679,0-1.249-0.226-1.696-0.68c-0.447-0.459-0.673-0.998-0.673-1.635v-5.002
		c0-1.855,0.122-4.598,0.361-8.235c0.226-3.698,0.343-6.453,0.355-8.271c0.012-3.11,0.888-4.598,2.62-4.463
		c0.404-0.11,0.968-0.19,1.684-0.245c0.716-0.055,1.592-0.08,2.621-0.08c2.345,0,4.543,0.759,6.599,2.277
		c2.284,1.696,3.429,3.765,3.429,6.208c0,3.061-1.212,5.492-3.643,7.298C14.575,29.757,12.01,30.553,9.029,30.553L9.029,30.553z
		 M40.344,17.567L40.344,17.567c-0.238,0-0.49-0.037-0.753-0.11c-1.935-0.52-3.82-0.783-5.651-0.783
		c-0.894,0-1.855,0.073-2.884,0.214c-1.029,0.141-2.124,0.355-3.281,0.643c0,1.592-0.055,3.949-0.16,7.084
		c0.668-0.049,3.007-0.27,7.011-0.661c2.283-0.227,3.734-0.343,4.34-0.343c0.704,0,1.31,0.227,1.812,0.673
		c0.502,0.447,0.753,1.041,0.753,1.781c0,1.427-0.76,2.235-2.278,2.424c-0.955,0.074-2.388,0.19-4.286,0.361
		c-1.702,0.189-4.254,0.422-7.677,0.698c-0.08,1.518-0.123,2.743-0.123,3.68c0,2.345,0.135,3.679,0.41,3.998
		c0.129,0.159,0.888,0.239,2.259,0.239c0.741,0,1.861-0.018,3.355-0.055c1.494-0.037,2.615-0.055,3.355-0.055
		c0.239,0,0.594-0.037,1.059-0.11c0.465-0.067,0.814-0.104,1.041-0.104c0.691,0,1.286,0.196,1.775,0.588
		c0.563,0.447,0.845,1.066,0.845,1.867c0,1.34-0.698,2.137-2.1,2.4c-1.193,0.227-3.674,0.343-7.445,0.343
		c-3.894,0-6.435-0.527-7.622-1.58c-1.304-1.157-1.953-3.673-1.953-7.53c0-1.604,0.117-4.01,0.349-7.225
		c0.233-3.208,0.349-5.608,0.349-7.2c0-0.422-0.061-1.041-0.178-1.855c-0.116-0.82-0.177-1.439-0.177-1.861
		c0-1.818,0.839-2.724,2.51-2.724c0.527,0,1.01,0.147,1.451,0.447c1.384-0.343,2.706-0.606,3.955-0.778
		c1.249-0.171,2.425-0.257,3.539-0.257c3.012,0,5.418,0.343,7.224,1.035c1.096,0.416,1.647,1.181,1.647,2.277
		c0,0.624-0.215,1.175-0.643,1.653C41.691,17.292,41.085,17.567,40.344,17.567L40.344,17.567z M66.279,19.062L66.279,19.062
		c-0.931,0-2.388-0.067-4.359-0.196c-1.904-0.135-3.355-0.196-4.359-0.184c0.049,1.366,0.208,3.79,0.484,7.279
		c0.25,3.085,0.373,5.523,0.373,7.316c0,0.41,0.043,1.01,0.129,1.813c0.079,0.802,0.122,1.408,0.122,1.812
		c0,0.894-0.19,1.702-0.57,2.418c-0.49,0.924-1.187,1.383-2.1,1.383c-0.655,0-1.237-0.208-1.738-0.631
		c-0.563-0.465-0.845-1.047-0.845-1.757c0-0.165,0.03-0.417,0.092-0.759c0.055-0.343,0.086-0.6,0.086-0.777
		c0-0.551-0.037-1.384-0.116-2.498c-0.08-1.108-0.116-1.947-0.116-2.51c0-1.598-0.123-3.771-0.373-6.508
		c-0.288-3.141-0.453-5.314-0.502-6.508h-0.931c-2.669,0-4.788-0.19-6.355-0.569c-1.328-0.324-1.99-1.108-1.99-2.351
		c0-0.612,0.215-1.163,0.643-1.653c0.508-0.588,1.163-0.851,1.977-0.79c0.416,0.025,1.365,0.123,2.854,0.306
		c1.181,0.129,2.136,0.196,2.865,0.196c0.735,0,1.825-0.012,3.275-0.037c1.451-0.025,2.547-0.037,3.275-0.037
		c0.907,0,2.272,0.061,4.09,0.183c1.818,0.129,3.177,0.19,4.09,0.19c0.716,0,1.316,0.233,1.8,0.698
		c0.484,0.471,0.729,1.047,0.729,1.727c0,0.685-0.245,1.261-0.729,1.732C67.595,18.823,66.995,19.062,66.279,19.062z"/>
</g>
</svg>
